<svg width="166" height="42" viewBox="0 0 166 42" xmlns="http://www.w3.org/2000/svg">
    <g fill="none" fill-rule="evenodd">
        <path d="M45.408 23.22h16.709c0-3.695-3.724-7.39-8.378-7.39-4.421 0-7.912 3.243-8.331 7.39m15.685 5.748 1.49.986c-1.397 1.724-4.003 3.982-8.844 3.941-5.632 0-10.24-4.352-10.24-9.854 0-5.501 4.608-9.854 10.24-9.854 5.585 0 10.24 4.353 10.24 9.854v.821H45.408c.419 4.147 3.91 7.39 8.331 7.39 4.003.042 6.144-1.806 7.354-3.284" fill="#FFF" fill-rule="nonzero"/>
        <path d="M45.408 23.22h16.709c0-3.695-3.724-7.39-8.378-7.39-4.421 0-7.912 3.243-8.331 7.39zm15.685 5.748 1.49.986c-1.397 1.724-4.003 3.982-8.844 3.941-5.632 0-10.24-4.352-10.24-9.854 0-5.501 4.608-9.854 10.24-9.854 5.585 0 10.24 4.353 10.24 9.854v.821H45.408c.419 4.147 3.91 7.39 8.331 7.39 4.003.042 6.144-1.806 7.354-3.284z" stroke="#FFF" stroke-width="1.3"/>
        <path d="m87.25 33.074.046.862h-1.815l-.046-.821-.047-10.593c0-3.654-3.072-6.692-6.982-6.692-3.909 0-6.981 3.038-6.981 6.692v11.373h-1.862V14.188h1.862v3.202c1.63-1.93 4.142-3.203 6.981-3.203 4.84 0 8.844 3.695 8.844 8.335v10.552z" fill="#FFF" fill-rule="nonzero"/>
        <path d="m87.25 33.074.046.862h-1.815l-.046-.821-.047-10.593c0-3.654-3.072-6.692-6.982-6.692-3.909 0-6.981 3.038-6.981 6.692v11.373h-1.862V14.188h1.862v3.202c1.63-1.93 4.142-3.203 6.981-3.203 4.84 0 8.844 3.695 8.844 8.335v10.552z" stroke="#FFF" stroke-width="1.3"/>
        <path fill="#FFF" fill-rule="nonzero" d="m92.928 15.337-.559-1.15h2.001l.233.493 7.587 16.218 7.447-16.218.279-.493h2.001l-.512 1.15-8.33 18.065-.28.493h-1.21l-.233-.493z"/>
        <path stroke="#FFF" stroke-width="1.3" d="m92.928 15.337-.559-1.15h2.001l.233.493 7.587 16.218 7.447-16.218.279-.493h2.001l-.512 1.15-8.33 18.065-.28.493h-1.21l-.233-.493z"/>
        <path fill="#FFF" fill-rule="nonzero" d="M117.037 33.895h1.862V14.187h-1.862z"/>
        <path stroke="#FFF" stroke-width="1.3" d="M117.037 33.895h1.862V14.187h-1.862z"/>
        <path d="M126.345 24.041c0 4.517 3.724 8.212 8.378 8.212s8.378-3.695 8.378-8.212c0-4.516-3.724-8.211-8.378-8.211s-8.378 3.695-8.378 8.211m-1.861 0c0-5.502 4.654-9.854 10.24-9.854 5.584 0 10.238 4.352 10.238 9.854 0 5.502-4.654 9.854-10.239 9.854-5.585 0-10.24-4.352-10.24-9.854" fill="#FFF" fill-rule="nonzero"/>
        <path d="M126.345 24.041c0 4.517 3.724 8.212 8.378 8.212s8.378-3.695 8.378-8.212c0-4.516-3.724-8.211-8.378-8.211s-8.378 3.695-8.378 8.211zm-1.861 0c0-5.502 4.654-9.854 10.24-9.854 5.584 0 10.238 4.352 10.238 9.854 0 5.502-4.654 9.854-10.239 9.854-5.585 0-10.24-4.352-10.24-9.854z" stroke="#FFF" stroke-width="1.3"/>
        <path d="M165.209 19.484h-1.862c0-2.135-2.886-3.654-6.004-3.654-3.119 0-6.004 1.519-6.004 3.654 0 4.023 14.707 3.367 14.661 9.115 0 2.75-3.584 5.296-8.657 5.296s-8.657-2.545-8.657-5.296h1.861c0 2.176 3.305 3.654 6.796 3.654 3.49 0 6.795-1.478 6.795-3.654 0-4.065-14.615-3.326-14.661-9.115 0-2.792 3.351-5.297 7.866-5.297 4.514 0 7.866 2.505 7.866 5.297" fill="#FFF" fill-rule="nonzero"/>
        <path d="M165.209 19.484h-1.862c0-2.135-2.886-3.654-6.004-3.654-3.119 0-6.004 1.519-6.004 3.654 0 4.023 14.707 3.367 14.661 9.115 0 2.75-3.584 5.296-8.657 5.296s-8.657-2.545-8.657-5.296h1.861c0 2.176 3.305 3.654 6.796 3.654 3.49 0 6.795-1.478 6.795-3.654 0-4.065-14.615-3.326-14.661-9.115 0-2.792 3.351-5.297 7.866-5.297 4.514 0 7.866 2.505 7.866 5.297z" stroke="#FFF" stroke-width="1.3"/>
        <path d="M26.368 15.803h4.623c.138 0 .27.039.387.108-.001.02-.003.041-.003.062v21.642c0 .533.501.913.994.753l.721-.232a98.946 98.946 0 0 1 6.887-2.491.808.808 0 0 0 .076-.34V15.974a.998.998 0 0 0-.006-.107v-.063h.006V2.53a.79.79 0 0 0-.778-.802h-3.98a.78.78 0 0 0-.736.546c-1.22 3.749-3.626 6.572-7.322 7.255a9.413 9.413 0 0 1-.933.124.792.792 0 0 0-.714.798v4.55a.79.79 0 0 0 .778.802" fill="#FFF" fill-rule="nonzero"/>
        <path d="M32.39.297A.93.93 0 0 0 31.714 0H1.707C.764 0 0 .715 0 1.596v5.749c0 .313.271.567.606.567h11.47v4.426c0 .018-.003.033-.004.049v26.059c0 .24.152.45.373.52a59.21 59.21 0 0 1 7.45 2.983c.35.167.749-.096.749-.494V9.157a.948.948 0 0 0-.025-.193c-.074-.352.059-.762.4-.903a.7.7 0 0 1 .269-.05h3.283l.02-.002c7.146-.72 7.88-6.414 7.94-7.059l.004-.106V.686a.566.566 0 0 0-.145-.39M119.168 11.034l-1.133 1.312-.165-2.514z" fill="#FFF" fill-rule="nonzero"/>
        <path d="m115.319 7.21 9.266-3.74-3.582 8.757-3.098-2.83 6.652-5.905-.363.246-6.72 5.041a.224.224 0 0 0-.063.165l.462 3.052-.011-.003-.925-3.363-1.618-1.42z" fill="#FFF" fill-rule="nonzero"/>
    </g>
</svg>
